<?xml version="1.0" ?><svg id="Social_media" style="enable-background:new 0 0 90 90;" version="1.1" viewBox="0 0 90 90" xml:space="preserve" xmlns="http://www.w3.org/2000/svg" xmlns:xlink="http://www.w3.org/1999/xlink"><style type="text/css">
	.st0{fill:none;}
	.st1{fill:#FFFFFF;}
</style><g><path class="st0" d="M38.3,24.2c0.6-0.4,1.3-0.9,1.9-1.3c-0.1-0.1-0.1-0.2-0.1-0.3c-0.6,0.5-1.3,1-1.9,1.5   C38.2,24.2,38.2,24.2,38.3,24.2z"/><path class="st0" d="M58.8,69.1c-0.1,0.1-0.2,0.1-0.3,0.2c0.1,0,0.1,0.1,0.2,0.1C58.7,69.3,58.8,69.2,58.8,69.1z"/><path class="st0" d="M60.1,14.9c0,0,0.1,0,0.1-0.1c0-0.1,0.1-0.2,0.1-0.2c-0.1,0-0.2,0.1-0.3,0.1C60.1,14.8,60.1,14.8,60.1,14.9z"/><path class="st0" d="M27.5,70c-0.4,0.3-0.9,0.6-1.3,0.9c0.3-0.1,0.7-0.3,1-0.4C27.3,70.4,27.4,70.2,27.5,70z"/><path class="st0" d="M48.2,72.1c-0.3,0.3-0.7,0.5-1,0.7c0.4,0,0.9,0,1.3-0.1C48.3,72.5,48.2,72.3,48.2,72.1z"/><path class="st0" d="M53.1,18.5c-0.8,0.8-1.6,1.7-2.3,2.5c0.7-0.5,1.4-1.1,2.2-1.6c0.2-0.2,0.5-0.5,0.7-0.7   C53.5,18.6,53.3,18.5,53.1,18.5z"/><path class="st0" d="M16,73c-0.2,0-0.4,0-0.6,0c0.2,0.2,0.4,0.4,0.6,0.6C16,73.4,16,73.2,16,73z"/><path class="st0" d="M54.1,72.3c-0.2,0.1-0.5,0.3-0.7,0.4c0.4,0,0.8,0,1.2,0C54.4,72.5,54.3,72.4,54.1,72.3z"/><path class="st0" d="M17.8,48.3c-0.1-0.1-0.2-0.3-0.4-0.4c-1.3,1.3-2.6,2.6-3.9,3.9c-0.3,0.3-0.6,0.5-1,0.6c0,0.6,0,1.1,0,1.7   C14.2,52,16,50.1,17.8,48.3z"/><path class="st0" d="M70.5,71c-0.2,0.1-0.3,0.3-0.5,0.4c0.2-0.1,0.4-0.2,0.7-0.3C70.6,71,70.5,71,70.5,71z"/><path d="M82.3,42.3c-0.2-5.1-0.6-10.1-1.1-15.2c-0.4-4.1-0.4-8.9-2.2-12.6c-2.1-4.4-6.7-5.7-11.7-5.9c-1.4-0.3-2.8-0.4-4.3-0.6   c-9.4-0.8-18.3,1.7-27.6,1.3C31.3,9.1,27.3,8.6,23,8.9c-3.1,0.2-7.8-0.1-10.5,1.7c-4.9,3.2-5.4,12-4.9,17.4   C7,35.4,7.6,43.1,7.7,47.5c0,5.2,0,10.4,0.3,15.6c0.2,3.6,0,8.4,1.8,11.7c3.7,6.7,15.7,7.3,22.4,7.4c10.7,0.3,21.4-0.7,32.1-1.2   c7.3-0.3,14.6-1.2,17.1-9.2c1.2-3.9,1.1-8.3,1.1-12.4C82.7,53.7,82.6,48,82.3,42.3z M27.5,70c-0.1,0.2-0.2,0.3-0.3,0.5   c-0.3,0.1-0.7,0.3-1,0.4C26.6,70.6,27.1,70.3,27.5,70z M40,22.6c0,0.1,0.1,0.2,0.1,0.3c-0.6,0.4-1.3,0.9-1.9,1.3   c0,0-0.1-0.1-0.1-0.1C38.8,23.6,39.4,23.1,40,22.6z M50.8,21c0.7-0.8,1.5-1.7,2.3-2.5c0.2,0,0.4,0.1,0.6,0.1   c-0.2,0.2-0.5,0.5-0.7,0.7C52.3,19.9,51.5,20.4,50.8,21z M60.2,14.8c0,0-0.1,0-0.1,0.1c0-0.1,0-0.1,0-0.2c0.1,0,0.2-0.1,0.3-0.1   C60.3,14.7,60.3,14.8,60.2,14.8z M58.8,69.1c0,0.1-0.1,0.2-0.1,0.3c-0.1,0-0.1-0.1-0.2-0.1C58.6,69.2,58.7,69.2,58.8,69.1z    M21.9,39c0.2,0,0.4,0,0.5,0c0.1,0,0.2,0,0.3,0c0.2,0.1,0.4,0.2,0.5,0.2c0.1,0,0.2,0.1,0.3,0.1c0.6,0.3,1.3,0.5,1.9,0.8   c-1.4-1.6-2.7-3.1-3.1-5.5c-0.4-2.4,0-4.7,1.1-6.8c0.1-0.2,0.2-0.2,0.3-0.3c0.2-0.2,0.6-0.2,0.8,0c3,2.6,6.7,5.4,10.6,7.3   c0.2,0.1,0.5,0.2,0.7,0.3c1.7,0.8,3.5,1.4,5.2,1.7c4.1,0.8,2.7-0.5,3.2-3.5c0.3-1.6,1.1-3.1,2.1-4.3c1.9-2.2,4.7-3.6,7.6-3.9   c5.1-0.4,9.1,3.8,13.8,0.5c0.5-0.3,1.2,0.3,0.8,0.8c-1.1,1.5-2.3,2.9-3.6,4.1c1.3-0.3,2.6-0.7,3.8-1.3c0.5-0.2,1.1,0.3,0.8,0.8   c-1.3,2.1-2.7,3.8-4.6,5.4c0,0-0.1,0-0.1,0.1c0.8,8.5-2.9,14.4-8.4,20.6c-3.6,4.1-9.3,9.4-15.2,9.4c-1,0.2-2.1,0.3-3.1,0.3   c-0.5,0-0.9,0.1-1.4,0.1c-5.4,0-11.8-1.7-16.1-4.9c-0.5-0.4-0.2-1.2,0.5-1.1c5.1,1.2,10,0.1,13.9-3.3c-4-0.7-7.1-4.4-10-6.9   c-0.5-0.4,0-1.1,0.6-1c1,0.2,1.9,0.3,2.8,0.3c-2.4-1-4.4-2.6-5.4-4.9c-0.9-1.4-1.3-2.9-1.5-4.6C21.5,39.3,21.7,39,21.9,39z    M48.2,72.1c0.1,0.3,0.2,0.5,0.3,0.7c-0.4,0-0.9,0-1.3,0.1C47.5,72.6,47.8,72.3,48.2,72.1z M54.1,72.3c0.2,0.1,0.3,0.3,0.5,0.4   c-0.4,0-0.8,0-1.2,0C53.6,72.5,53.9,72.4,54.1,72.3z M70.5,71c0,0,0.1,0.1,0.1,0.1c-0.2,0.1-0.4,0.2-0.7,0.3   C70.1,71.2,70.3,71.1,70.5,71z M12.6,52.3c0.4-0.1,0.7-0.3,1-0.6c1.3-1.3,2.6-2.6,3.9-3.9c0.1,0.2,0.2,0.3,0.4,0.4   C16,50.1,14.2,52,12.6,54C12.6,53.4,12.6,52.9,12.6,52.3z M16,73c0,0.2,0,0.4,0.1,0.6c-0.2-0.2-0.4-0.4-0.6-0.6   C15.6,73.1,15.8,73.1,16,73z"/><path d="M24.1,29.5C24.1,29.5,24.1,29.5,24.1,29.5C24.1,29.5,24.1,29.5,24.1,29.5C24.1,29.5,24.1,29.5,24.1,29.5z"/><path d="M27.2,63C27.2,63,27.2,63,27.2,63C27.1,63,27.1,63,27.2,63C27.2,63,27.2,63.1,27.2,63C27.2,63,27.2,63,27.2,63z"/><path d="M66,32.9C66,32.9,66,33,66,32.9c0,0,0.1-0.1,0.2-0.1C66.2,32.8,66.1,32.9,66,32.9z"/><path d="M30.1,52.8C30,52.7,30,52.6,30,52.5c-0.2-0.1-0.3-0.2-0.5-0.2c0.2,0.2,0.5,0.4,0.7,0.6C30.2,52.9,30.1,52.8,30.1,52.8z"/><path d="M27.3,50.2C27.3,50.2,27.3,50.2,27.3,50.2C27.3,50.2,27.3,50.2,27.3,50.2C27.3,50.2,27.3,50.2,27.3,50.2z"/><path d="M31.8,49.8C31.8,49.8,31.8,49.8,31.8,49.8C31.9,49.9,31.9,49.9,31.8,49.8z"/><path d="M57.9,26.8C57.9,26.8,57.9,26.8,57.9,26.8c-0.3-0.1-0.6-0.2-1-0.3C57.3,26.6,57.6,26.7,57.9,26.8z"/><path d="M62.5,31.6C62.5,31.7,62.6,31.7,62.5,31.6c0.1,0.1,0.1,0.1,0.1,0.1c0,0,0.1,0,0.1,0c0-0.1-0.1-0.1-0.1-0.2   C62.6,31.6,62.5,31.6,62.5,31.6z"/><path d="M65.8,33.3c-0.1,0-0.1,0.1-0.2,0.1c-0.3,0.3-0.6,0.6-0.9,0.9C65.1,34,65.4,33.6,65.8,33.3z"/><path class="st1" d="M23.1,44.2c1,2.3,3,3.9,5.4,4.9c-0.9,0-1.8-0.1-2.8-0.3c-0.5-0.1-1.1,0.6-0.6,1c2.9,2.5,6,6.2,10,6.9   c-3.9,3.4-8.7,4.5-13.9,3.3c-0.7-0.2-1,0.7-0.5,1.1c4.4,3.1,10.8,4.9,16.1,4.9c0.5,0,1,0,1.4-0.1c1.1,0,2.1-0.1,3.1-0.3   c5.9,0,11.7-5.3,15.2-9.4c5.4-6.2,9.1-12.1,8.4-20.6c0,0,0.1,0,0.1-0.1c1.8-1.6,3.3-3.3,4.6-5.4c0.3-0.5-0.3-1-0.8-0.8   c-1.2,0.6-2.5,1-3.8,1.3c1.3-1.2,2.5-2.6,3.6-4.1c0.3-0.5-0.3-1.1-0.8-0.8c-4.7,3.3-8.7-0.9-13.8-0.5c-2.9,0.2-5.7,1.6-7.6,3.9   c-1,1.2-1.8,2.7-2.1,4.3c-0.6,3,0.9,4.3-3.2,3.5c-1.7-0.3-3.5-0.9-5.2-1.7c-0.2-0.1-0.5-0.2-0.7-0.3c-3.9-1.9-7.7-4.7-10.6-7.3   c-0.2-0.2-0.6-0.2-0.8,0c-0.1,0-0.3,0.1-0.3,0.3c-1.1,2.1-1.6,4.4-1.1,6.8c0.4,2.4,1.7,3.8,3.1,5.5c-0.6-0.3-1.3-0.5-1.9-0.8   c-0.1-0.1-0.2-0.1-0.3-0.1c-0.2-0.1-0.4-0.2-0.5-0.2c-0.1,0-0.2,0-0.3,0c-0.2,0-0.3,0-0.5,0c-0.2,0-0.5,0.3-0.4,0.6   C21.7,41.3,22.2,42.8,23.1,44.2z M31.8,49.8C31.9,49.9,31.9,49.9,31.8,49.8C31.8,49.8,31.8,49.8,31.8,49.8z M62.6,31.8   C62.6,31.8,62.6,31.7,62.6,31.8c-0.1-0.1-0.1-0.1-0.1-0.1c0,0,0.1,0,0.1-0.1C62.6,31.6,62.7,31.7,62.6,31.8   C62.7,31.8,62.7,31.8,62.6,31.8z M65.6,33.4c0.1,0,0.1-0.1,0.2-0.1c-0.3,0.4-0.7,0.7-1.1,1C65,34,65.3,33.7,65.6,33.4z M24.1,29.5   C24.1,29.5,24.1,29.5,24.1,29.5C24.1,29.5,24.1,29.5,24.1,29.5C24.1,29.5,24.1,29.5,24.1,29.5z M27.3,50.2   C27.3,50.2,27.3,50.2,27.3,50.2C27.3,50.2,27.3,50.2,27.3,50.2C27.3,50.2,27.3,50.2,27.3,50.2z M30,52.5c0,0.1,0.1,0.2,0.1,0.3   c0,0,0.1,0.1,0.1,0.1c-0.2-0.2-0.5-0.4-0.7-0.6C29.7,52.3,29.8,52.4,30,52.5z M66,33C66,33,66,32.9,66,33c0.1-0.1,0.1-0.2,0.2-0.2   C66.1,32.8,66.1,32.9,66,33z M57.9,26.8C57.9,26.8,57.9,26.8,57.9,26.8c-0.4-0.1-0.7-0.2-1-0.2C57.3,26.6,57.6,26.7,57.9,26.8z    M27.1,63C27.1,63,27.1,63,27.1,63C27.2,63,27.2,63,27.1,63C27.2,63,27.2,63,27.1,63C27.2,63.1,27.2,63,27.1,63z"/></g></svg>