<?xml version="1.0" ?><svg id="Social_media" style="enable-background:new 0 0 90 90;" version="1.1" viewBox="0 0 90 90" xml:space="preserve" xmlns="http://www.w3.org/2000/svg" xmlns:xlink="http://www.w3.org/1999/xlink"><style type="text/css">
	.st0{fill:none;}
	.st1{fill:#FFFFFF;}
</style><g><path class="st0" d="M73.3,47.3c0.1,0,0.2,0.1,0.2,0.1c0,0,0-0.1,0-0.1C73.5,47.2,73.4,47.2,73.3,47.3z"/><path class="st0" d="M62.8,46.6c0.1-0.1,0.2-0.1,0.3-0.2c0,0-0.1,0-0.1,0C62.9,46.5,62.9,46.6,62.8,46.6z"/><path class="st0" d="M63.9,72.9c-0.3,0.2-0.7,0.4-1,0.5c-0.3,0.2-0.6,0.2-0.9,0.3c0,0.1,0,0.1,0,0.2c0.7-0.2,1.3-0.5,1.9-0.8   C63.9,73,63.9,73,63.9,72.9z"/><path class="st0" d="M13.1,38.1c0-0.1-0.1-0.2-0.1-0.3c0-0.1,0-0.2-0.1-0.3c0,0.3,0,0.6,0,0.9C13,38.3,13,38.2,13.1,38.1z"/><path class="st0" d="M25.5,58.5c0.1,0,0.1,0,0.2-0.1c0.2-0.2,0.5-0.5,0.7-0.7c0,0,0-0.1-0.1-0.1C26.1,57.9,25.8,58.2,25.5,58.5z"/><path class="st0" d="M29,48.7c-0.5,0.3-1,0.6-1.5,0.9c0,0.1,0,0.1,0.1,0.2c0.2-0.1,0.4-0.2,0.6-0.2C28.5,49.3,28.7,49,29,48.7z"/><path class="st0" d="M12.8,58.1c0,0.1,0,0.2,0,0.3c0,0,0-0.1,0.1-0.1C12.9,58.2,12.8,58.1,12.8,58.1z"/><path class="st0" d="M74.8,17.4C74.8,17.4,74.8,17.4,74.8,17.4C74.8,17.4,74.8,17.4,74.8,17.4z"/><path class="st0" d="M75.8,19c-0.3-0.5-0.5-1-0.8-1.4C75.3,18.1,75.5,18.5,75.8,19z"/><path class="st0" d="M32.9,74.8C32,74.9,31,75,30,75.2c1.7,0.2,3.4,0.3,5.2,0.4C34.4,75.3,33.6,75,32.9,74.8z"/><path class="st0" d="M17.7,70.1c-0.1,0-0.2,0-0.3,0c0.1,0.2,0.2,0.3,0.4,0.5C17.8,70.4,17.7,70.3,17.7,70.1z"/><path class="st0" d="M13,56.5c0.1-0.8,0.2-1.5,0.4-2.3c-0.2-0.1-0.3-0.2-0.5-0.3c0,1.1,0,2.2,0,3.3c0-0.1,0.1-0.2,0.1-0.4   C12.9,56.7,12.9,56.6,13,56.5z"/><path d="M78.3,14C73,7.4,60.9,8.1,53.4,7.7c-4.8-0.2-9.6-0.2-14.3,0c-4.5-1.1-9.8-0.2-14.2,0C23,7.8,21,7.9,19.3,8.6   c-0.2,0-0.4,0-0.6,0.1c-7.4,2.2-9.9,9.4-10.3,16.6C7.8,36.4,8.2,47.6,8.1,58.7C8,65.9,7.4,74.3,14,79c6.2,4.5,15,3.7,22.2,3.7   c10.5,0,20.9-0.1,31.4-0.5c7.4-0.3,12.5-1.8,13.6-10c1.5-10.6,0.4-21.5,0.3-32.2C81.3,31.7,84,21.1,78.3,14z M20.7,67.6   c2-3,4.3-5.5,7-7.7c-0.5-0.7-0.9-1.4-1.3-2.1c-0.2,0.2-0.5,0.5-0.7,0.7c-0.1,0-0.1,0-0.2,0.1c0.3-0.3,0.5-0.6,0.8-0.9   c-5.2-9-7.2-20.2-0.6-29.1C32,20,44.6,18.3,54,21.8c14.7,2.1,19.1,23.9,13,35.5c-3.1,5.9-8.6,10.5-15,12.2   c-9.3,2.5-19.5-3.6-28.3,1.2C21.9,71.7,19.4,69.6,20.7,67.6z M73.3,47.3c0.1,0,0.2,0,0.2,0c0,0,0,0.1,0,0.1   C73.5,47.3,73.4,47.3,73.3,47.3z M62,73.7c0.3,0,0.6-0.1,0.9-0.3c0.3-0.2,0.7-0.4,1-0.5c0,0.1,0,0.1,0,0.2   c-0.6,0.3-1.3,0.6-1.9,0.8C62,73.8,62,73.8,62,73.7z M13,37.9c0,0.1,0,0.2,0.1,0.3c0,0.1-0.1,0.2-0.1,0.3c0-0.3,0-0.6,0-0.9   C13,37.6,13,37.7,13,37.9z M12.8,53.9c0.1,0.1,0.3,0.2,0.5,0.3c-0.1,0.8-0.2,1.5-0.4,2.3c0,0.1,0,0.2,0,0.3   c-0.1,0.1-0.1,0.2-0.1,0.4C12.8,56.1,12.8,55,12.8,53.9z M17.7,70.1c0,0.2,0,0.4,0,0.5c-0.1-0.2-0.2-0.3-0.4-0.5   C17.5,70.1,17.6,70.1,17.7,70.1z M32.9,74.8c0.8,0.3,1.5,0.6,2.3,0.8c-1.7-0.1-3.4-0.2-5.2-0.4C31,75,32,74.9,32.9,74.8z M75,17.6   c0.3,0.4,0.6,0.9,0.8,1.4C75.5,18.5,75.3,18.1,75,17.6z M74.7,17.3C74.8,17.4,74.8,17.4,74.7,17.3C74.8,17.4,74.8,17.4,74.7,17.3z    M12.8,58.1c0,0.1,0,0.1,0.1,0.2c0,0,0,0.1-0.1,0.1C12.8,58.3,12.8,58.2,12.8,58.1z"/><path d="M32.7,59.2c0.8,1,0.1,2.5-0.8,3.1c-1,0.7-2,1.4-2.8,2.2c9.4-0.8,19.3,3.7,27.8-2.4c5.4-3.8,8.5-10,8.2-16.7   c-0.2-4.9-1.5-11.5-5-15.5c-1.5-1.4-3.4-2.3-5.3-3.1c-0.3,0-0.7-0.1-1-0.2c-8.4-4-21.2-2.3-25.9,6.6c-2.8,5.3-2.5,11.1-0.6,16.4   c0.5-0.3,1-0.6,1.5-0.9c-0.3,0.3-0.6,0.6-0.9,0.8c-0.2,0-0.4,0.1-0.6,0.2C28.8,53.1,30.7,56.4,32.7,59.2z M62.8,46.6   c0.1-0.1,0.1-0.1,0.2-0.2c0,0,0.1,0,0.1,0C63,46.5,62.9,46.6,62.8,46.6z M37.7,35.7c2.1-1.9,5.3,1.3,3.2,3.2   c-2.1,1.9,4.3,6.2,5.3,6.9c2.5,1.8,5.8,3.4,8.2,0.6c1.9-2.2,5,1,3.2,3.2c-4.4,5.1-10.8,2.3-15.3-1.1C38.6,45.6,32.6,40.2,37.7,35.7   z"/><path class="st1" d="M23.8,70.7c8.8-4.8,19,1.2,28.3-1.2c6.3-1.7,11.9-6.3,15-12.2c6.1-11.7,1.7-33.4-13-35.5   C44.6,18.3,32,20,25.7,28.5c-6.6,9-4.5,20.1,0.6,29.1c0,0,0,0.1,0.1,0.1c0.4,0.7,0.9,1.4,1.3,2.1c-2.7,2.2-5,4.7-7,7.7   C19.4,69.6,21.9,71.7,23.8,70.7z M27.6,49.7c0-0.1,0-0.1-0.1-0.2c-1.9-5.3-2.3-11,0.6-16.4c4.7-8.9,17.5-10.6,25.9-6.6   c0.3,0.2,0.7,0.2,1,0.2c1.9,0.8,3.8,1.8,5.3,3.1c3.4,4.1,4.8,10.7,5,15.5c0.2,6.7-2.9,12.9-8.2,16.7c-8.5,6.1-18.5,1.6-27.8,2.4   c0.9-0.8,1.8-1.5,2.8-2.2c0.9-0.6,1.6-2.1,0.8-3.1C30.7,56.4,28.8,53.1,27.6,49.7z"/><path class="st1" d="M42.2,48.4c4.4,3.5,10.9,6.3,15.3,1.1c1.9-2.2-1.3-5.4-3.2-3.2c-2.4,2.8-5.7,1.2-8.2-0.6c-1-0.7-7.4-5-5.3-6.9   c2.2-1.9-1-5.2-3.2-3.2C32.6,40.2,38.6,45.6,42.2,48.4z"/></g></svg>