<?xml version="1.0" ?><svg id="Social_media" style="enable-background:new 0 0 90 90;" version="1.1" viewBox="0 0 90 90" xml:space="preserve" xmlns="http://www.w3.org/2000/svg" xmlns:xlink="http://www.w3.org/1999/xlink"><style type="text/css">
	.st0{fill:none;}
	.st1{fill:#FFFFFF;}
</style><g><path class="st0" d="M14,47.6c0.1-0.1,0.3-0.2,0.4-0.3c0,0,0-0.1,0-0.1c0-0.1-0.1-0.2-0.1-0.4c-0.2,0.1-0.3,0.2-0.5,0.4   c0,0.2,0.1,0.3,0.1,0.5C13.9,47.7,14,47.6,14,47.6z"/><path class="st0" d="M63.9,13c0.4-0.1,0.8-0.2,1.2-0.3c-0.4,0-0.8,0-1.1,0C63.9,12.8,63.9,12.9,63.9,13z"/><path class="st0" d="M35,20.5c0.2-0.2,0.4-0.5,0.6-0.7c-0.1,0.1-0.2,0.1-0.3,0.2c-0.3,0.3-0.6,0.6-1,0.9c0,0,0,0-0.1,0.1   C34.5,20.8,34.7,20.7,35,20.5z"/><path class="st0" d="M76.9,23.1C76.9,23.1,76.9,23.1,76.9,23.1c0-0.3,0-0.5,0-0.7c0,0,0,0.1-0.1,0.1C76.8,22.7,76.8,22.9,76.9,23.1   z"/><path class="st0" d="M74.2,54.5c0.2-0.1,0.5-0.1,0.8-0.2c0-0.2,0-0.4,0-0.7C74.7,53.9,74.5,54.2,74.2,54.5z"/><path class="st0" d="M51.6,34.2c-0.1,0.1-0.2,0.1-0.3,0.2c0,0,0,0,0.1,0C51.5,34.4,51.5,34.3,51.6,34.2z"/><path class="st0" d="M14.6,51.8c0,0.2,0.1,0.4,0.1,0.7c0.2-0.2,0.4-0.4,0.6-0.6C15,51.9,14.8,51.9,14.6,51.8z"/><path class="st0" d="M53.9,76.5c-0.2,0-0.4,0-0.6,0c-0.1,0.1-0.1,0.1-0.2,0.2c0.3,0,0.5,0,0.8,0C53.9,76.6,53.9,76.6,53.9,76.5z"/><path class="st0" d="M45.9,12.9c0.2,0,0.4-0.1,0.5-0.1c-0.3,0-0.5,0-0.8,0C45.8,12.8,45.8,12.9,45.9,12.9z"/><path class="st0" d="M61.1,75.9c-0.5,0.3-1.1,0.5-1.7,0.6c0,0,0,0-0.1,0c0.7,0,1.4,0,2.1,0C61.3,76.4,61.2,76.2,61.1,75.9z"/><path class="st0" d="M70.9,13.7c0.3,0.1,0.7,0.3,1,0.4c0.1,0,0.2-0.1,0.3-0.1c-0.4-0.2-0.9-0.4-1.4-0.5   C70.9,13.6,70.9,13.7,70.9,13.7z"/><path class="st0" d="M14.4,28.1c-0.1,0-0.1,0-0.2-0.1c0,0.1,0,0.2-0.1,0.3C14.3,28.2,14.3,28.2,14.4,28.1z"/><path class="st0" d="M65.3,76.3c-0.1,0.1-0.2,0.2-0.3,0.2c0.3,0,0.6,0,0.9-0.1C65.7,76.4,65.5,76.4,65.3,76.3z"/><path d="M81.5,28c-0.4-8.2-0.8-16.4-9.9-18.8c-5.2-1.4-10.8-1-16-1c-6.4,0-12.8,0-19.1,0c-4,0-8.9-0.7-12.9,0.6c0,0-0.1,0-0.1,0   c-8.6-0.4-11.8,7.9-13.2,15c-0.9,5-1.8,10.1-1.9,15.2c-0.1,5.8,1.7,11.3,2,17c0.5,7.8-1.9,16.2,5.1,21.9c7.5,6,18.9,4,27.7,3.8   c5.5-0.1,11-0.3,16.5-0.4c4.5-0.1,9.9,0.4,13.9-2.1c6.7-4.2,6.9-13.1,6.3-20.1C79,48.5,82,38.5,81.5,28z M39.7,60.8   c-2,1.3-4.8,1.6-6.6-0.4c-2.2-2.5-1.3-8.1-1.5-11.1c-0.3-5.7,0-11.8-1.7-17.3c-0.1-0.4-0.1-0.7-0.1-1c-0.1-0.3-0.1-0.6-0.1-0.9   c0.2-2.2,2-2.7,3.9-2.7c0.4,0,0.9,0,1.4,0.1c0.2,0,0.3,0.1,0.5,0.2c0.4,0,0.8,0.1,1.1,0.3c4.8,2.7,9.9,4.3,14.7,6.4   c0.1-0.1,0.2-0.1,0.3-0.2c-0.1,0.1-0.2,0.2-0.2,0.2c4.1,1.8,7.9,4.1,11.1,7.7c4.2,4.7-0.1,6.8-4.6,8.3c-2.7,1.4-5.4,2.7-8.1,4.1   c-1.3,0.7-2.7,1.3-4.1,1.9C43.7,57.9,41.8,59.5,39.7,60.8z M14.6,51.8c0.2,0.1,0.5,0.1,0.7,0.1c-0.2,0.2-0.4,0.4-0.6,0.6   C14.7,52.3,14.6,52,14.6,51.8z M35.2,20c0.1-0.1,0.2-0.1,0.3-0.2c-0.2,0.2-0.4,0.5-0.6,0.7c-0.3,0.1-0.5,0.3-0.8,0.4   c0,0,0,0,0.1-0.1C34.6,20.6,34.9,20.3,35.2,20z M75,54.3c-0.3,0.1-0.5,0.1-0.8,0.2c0.2-0.3,0.5-0.6,0.8-0.8   C75,53.9,75,54.1,75,54.3z M14.3,46.9c0,0.1,0.1,0.2,0.1,0.4c0,0,0,0.1,0,0.1c-0.1,0.1-0.3,0.2-0.4,0.3c-0.1,0-0.1,0.1-0.2,0.1   c0-0.2-0.1-0.3-0.1-0.5C13.9,47.1,14.1,47,14.3,46.9z M76.9,23.1C76.9,23.1,76.9,23.1,76.9,23.1c-0.1-0.2-0.1-0.4-0.1-0.7   c0,0,0-0.1,0.1-0.1C76.8,22.6,76.9,22.9,76.9,23.1z M63.9,13c0-0.1,0-0.2,0-0.3c0.4,0,0.8,0,1.1,0C64.6,12.8,64.2,12.9,63.9,13z    M45.9,12.9c-0.1,0-0.2-0.1-0.2-0.1c0.3,0,0.5,0,0.8,0C46.3,12.8,46.1,12.9,45.9,12.9z M14.4,28.1c-0.1,0.1-0.2,0.2-0.3,0.3   c0-0.1,0-0.2,0.1-0.3C14.3,28,14.4,28.1,14.4,28.1z M53.3,76.5c0.2,0,0.4,0,0.6,0c0,0,0,0.1,0,0.1c-0.3,0-0.5,0-0.8,0   C53.2,76.6,53.3,76.6,53.3,76.5z M65.3,76.3c0.2,0.1,0.4,0.1,0.6,0.2c-0.3,0-0.6,0-0.9,0.1C65.1,76.4,65.2,76.4,65.3,76.3z    M72.2,14c-0.1,0-0.2,0.1-0.3,0.1c-0.3-0.2-0.7-0.3-1-0.4c0-0.1-0.1-0.1-0.1-0.2C71.3,13.7,71.8,13.8,72.2,14z M59.3,76.6   C59.3,76.5,59.3,76.5,59.3,76.6c0.7-0.1,1.2-0.3,1.8-0.6c0.1,0.2,0.2,0.4,0.3,0.6C60.7,76.6,60,76.5,59.3,76.6z"/><path d="M60.1,44.7C60.1,44.7,60.1,44.7,60.1,44.7C60.1,44.7,60.1,44.7,60.1,44.7C60.1,44.7,60.1,44.7,60.1,44.7z"/><path d="M54.3,41.1c0.3,0.3,0.6,0.5,0.9,0.8c0.1,0,0.1,0,0.2,0C55,41.7,54.7,41.4,54.3,41.1z"/><path class="st1" d="M49.8,54.5c2.7-1.4,5.4-2.7,8.1-4.1c4.6-1.5,8.9-3.6,4.6-8.3c-3.2-3.6-7.1-5.9-11.1-7.7c0,0,0,0-0.1,0   c-4.8-2.2-9.9-3.8-14.7-6.4c-0.3-0.2-0.7-0.3-1.1-0.3c-0.1-0.1-0.3-0.1-0.5-0.2c-0.5-0.1-0.9-0.1-1.4-0.1c-1.8,0-3.7,0.5-3.9,2.7   c0,0.3,0,0.6,0.1,0.9c0,0.3,0,0.6,0.1,1c1.8,5.4,1.4,11.6,1.7,17.3c0.2,3-0.7,8.6,1.5,11.1c1.7,2,4.5,1.6,6.6,0.4   c2.1-1.3,4-2.8,6-4.3C47.1,55.8,48.5,55.2,49.8,54.5z M60.1,44.7C60.1,44.7,60.1,44.7,60.1,44.7C60.1,44.7,60.1,44.7,60.1,44.7   C60.1,44.7,60.1,44.7,60.1,44.7z M55.4,41.9c-0.1,0-0.1,0-0.2,0c-0.3-0.3-0.6-0.5-0.9-0.8C54.7,41.4,55,41.7,55.4,41.9z"/></g></svg>